HIERARCHY
ROOT Hips
{
    OFFSET 0.000000 0.000000 0.000000
    CHANNELS 6 Xposition Yposition Zposition Zrotation Xrotation Yrotation
    JOINT Spine
    {
        OFFSET -0.000000 7.979263 0.000000
        CHANNELS 3 Zrotation Xrotation Yrotation
        JOINT Spine1
        {
            OFFSET -0.000000 24.719021 0.000000
            CHANNELS 3 Zrotation Xrotation Yrotation
            JOINT Neck
            {
                OFFSET -0.000000 24.617504 2.237955
                CHANNELS 3 Zrotation Xrotation Yrotation
                JOINT Head
                {
                    OFFSET -0.000000 13.623132 -1.946162
                    CHANNELS 3 Zrotation Xrotation Yrotation
                    End Site
                    {
                        OFFSET -0.000000 24.327021 0.000000
                    }
                }
            }
            JOINT LeftShoulder
            {
                OFFSET 3.885773 23.018444 -0.302444
                CHANNELS 3 Zrotation Xrotation Yrotation
                JOINT LeftArm
                {
                    OFFSET 10.447750 0.000000 0.000000
                    CHANNELS 3 Zrotation Xrotation Yrotation
                    JOINT LeftForeArm
                    {
                        OFFSET 29.090096 0.000000 0.000000
                        CHANNELS 3 Zrotation Xrotation Yrotation
                        JOINT LeftHand
                        {
                            OFFSET 28.893339 0.000000 0.000000
                            CHANNELS 3 Zrotation Xrotation Yrotation
                            End Site
                            {
                                OFFSET 14.596213 0.000000 0.000000
                            }
                        }
                    }
                }
            }
            JOINT RightShoulder
            {
                OFFSET -3.864586 23.018444 -0.302444
                CHANNELS 3 Zrotation Xrotation Yrotation
                JOINT RightArm
                {
                    OFFSET -10.447750 0.000000 0.000000
                    CHANNELS 3 Zrotation Xrotation Yrotation
                    JOINT RightForeArm
                    {
                        OFFSET -29.090096 0.000000 0.000000
                        CHANNELS 3 Zrotation Xrotation Yrotation
                        JOINT RightHand
                        {
                            OFFSET -28.893339 0.000000 0.000000
                            CHANNELS 3 Zrotation Xrotation Yrotation
                            End Site
                            {
                                OFFSET -14.596213 0.000000 0.000000
                            }
                        }
                    }
                }
            }
        }
    }
    JOINT LeftUpLeg
    {
        OFFSET 9.730808 0.000000 0.000000
        CHANNELS 3 Zrotation Xrotation Yrotation
        JOINT LeftLeg
        {
            OFFSET -0.000000 -34.800129 0.000000
            CHANNELS 3 Zrotation Xrotation Yrotation
            JOINT LeftFoot
            {
                OFFSET -0.000000 -44.597416 0.000000
                CHANNELS 3 Zrotation Xrotation Yrotation
                JOINT LeftToeBase
                {
                    OFFSET -0.000000 -6.325025 14.596213
                    CHANNELS 3 Zrotation Xrotation Yrotation
                    End Site
                    {
                        OFFSET -0.000000 0.000000 3.892323
                    }
                }
            }
        }
    }
    JOINT RightUpLeg
    {
        OFFSET -9.730808 0.000000 0.000000
        CHANNELS 3 Zrotation Xrotation Yrotation
        JOINT RightLeg
        {
            OFFSET -0.000000 -34.800129 0.000000
            CHANNELS 3 Zrotation Xrotation Yrotation
            JOINT RightFoot
            {
                OFFSET -0.000000 -44.597416 0.000000
                CHANNELS 3 Zrotation Xrotation Yrotation
                JOINT RightToeBase
                {
                    OFFSET -0.000000 -6.325025 14.596213
                    CHANNELS 3 Zrotation Xrotation Yrotation
                    End Site
                    {
                        OFFSET -0.000000 0.000000 3.892323
                    }
                }
            }
        }
    }
}
MOTION
Frames:    11
Frame Time:    0.008333
6.892949    88.102409    52.992569    -1.553040    3.921385    89.513229    -0.621875    -9.322898    -2.976891    1.111362    -10.923384    -2.819906    -5.058832    25.591764    5.219427    0.487728    -9.140207    5.078175    1.463762    2.747332    -15.607063    -11.934410    13.483430    -26.315578    39.246189    -23.484411    -48.010902    20.457687    -5.577386    1.297940    -4.019342    7.105556    8.542866    79.955956    58.790207    -5.235181    3.290134    -11.785821    15.856774    9.224485    -12.084323    1.898044    -0.390484    -4.697404    -5.328998    -1.723999    12.961478    9.644950    -13.140540    5.131431    3.760388    0.000000    0.000000    0.000000    -3.720270    5.562170    -2.878896    2.763366    0.949288    -6.017822    1.733866    -0.805321    -5.369987    0.000000    0.000000    0.000000    
6.976496    88.107941    52.989410    -1.586879    3.904828    89.535378    -0.643607    -9.301771    -2.960927    1.197865    -11.111371    -2.792042    -5.144979    25.408993    5.272682    0.435870    -9.058615    5.123475    1.423740    2.722826    -15.602989    -11.271230    12.947394    -26.396463    39.241394    -23.326742    -47.838020    20.436909    -5.542149    0.976330    -4.135719    7.174445    8.513124    80.022560    58.701653    -5.166729    3.386900    -11.784837    15.686980    9.170374    -12.093970    1.878123    -0.347924    -4.811329    -5.323600    -1.772828    13.190922    9.683107    -13.266532    5.050506    3.665432    0.000000    0.000000    0.000000    -3.723952    5.600852    -2.894953    2.772644    0.934262    -6.097558    1.865058    -0.792933    -5.250946    0.000000    0.000000    0.000000    
7.054106    88.106071    52.972717    -1.628577    3.940655    89.504868    -0.648683    -9.303847    -2.934986    1.199494    -11.225718    -2.764302    -5.295945    25.316750    5.315503    0.478013    -9.270350    5.169489    1.437956    2.629620    -15.467924    -10.592136    12.426439    -26.533342    39.376007    -23.156408    -47.571636    19.756777    -5.509085    0.411205    -4.237222    7.167206    8.627068    80.202805    58.570374    -5.227758    3.499005    -11.823712    15.606787    8.831813    -12.164613    1.697072    -0.386188    -4.986571    -5.244247    -1.773950    13.512590    9.769849    -13.381337    5.020152    3.488858    0.000000    0.000000    0.000000    -3.822293    5.588871    -2.819560    2.822918    0.975946    -6.157948    2.014571    -0.863008    -5.191398    0.000000    0.000000    0.000000    
7.141065    88.106323    52.959835    -1.629712    3.945317    89.483200    -0.606101    -9.271003    -2.919938    1.177478    -11.336464    -2.753924    -5.488502    25.140331    5.379326    0.571830    -9.339820    5.249577    1.453296    2.580641    -15.308491    -9.920084    11.729517    -26.656570    38.900887    -22.791103    -47.781616    20.179682    -5.306053    0.167159    -4.260458    7.036975    8.743246    80.626320    58.578716    -5.594928    3.485656    -11.922200    15.490614    8.773709    -12.261185    1.661397    -0.384226    -5.138388    -5.200130    -1.793985    13.856859    9.946370    -13.477993    5.021276    3.227308    0.000000    0.000000    0.000000    -3.870950    5.636177    -2.869805    2.848093    1.001567    -6.151315    2.193057    -0.924084    -5.090673    0.000000    0.000000    0.000000    
7.245147    88.097221    52.955975    -1.599977    3.892210    89.463737    -0.448764    -9.214781    -2.903253    1.046484    -11.450507    -2.762170    -5.884185    25.116465    5.541796    0.995404    -9.673388    5.482343    1.481350    2.712060    -15.191100    -9.010247    11.229083    -26.713919    38.679295    -22.927832    -47.679893    20.110859    -5.623516    0.090118    -4.210363    7.082110    8.894204    80.679893    58.458870    -5.607125    3.500144    -11.846460    15.345791    8.853286    -12.170813    1.808059    -0.289895    -5.273063    -5.208120    -1.903906    14.222907    10.190023    -13.524836    4.944882    3.016891    0.000000    0.000000    0.000000    -3.844981    5.755682    -2.861202    2.850319    0.979814    -6.263540    2.419627    -0.981098    -4.908835    0.000000    0.000000    0.000000    
7.313807    88.094162    52.930374    -1.627044    3.923766    89.346375    -0.325327    -9.103417    -2.839127    0.927607    -11.807830    -2.717314    -6.132330    25.354248    5.679273    1.069773    -10.093439    5.609725    1.308943    2.845202    -15.127600    -8.005317    10.785529    -26.595226    38.068821    -22.824856    -47.842186    20.619053    -5.795943    -0.153530    -4.118112    7.326194    9.209036    80.593475    58.245865    -5.505849    3.475050    -11.724344    15.145473    8.983326    -12.030413    1.899820    -0.307540    -5.543116    -5.210061    -1.994234    14.724619    10.349730    -13.659709    4.869554    2.956077    0.000000    0.000000    0.000000    -3.968697    5.722732    -2.730215    2.916319    1.054421    -6.380689    2.568886    -1.078921    -4.708287    0.000000    0.000000    0.000000    
7.382092    88.106178    52.898640    -1.640650    3.980264    89.266525    -0.195077    -9.082383    -2.852573    0.772719    -11.754298    -2.757517    -6.387287    24.867613    5.829806    1.162615    -10.109079    5.796010    1.380578    2.594753    -14.572776    -6.902401    10.675377    -26.766273    37.628212    -22.865261    -47.909554    20.678694    -6.003185    0.016821    -4.380905    7.105028    9.320202    80.891144    58.381268    -5.425059    3.503888    -11.677783    15.012559    8.890010    -11.987173    1.873180    -0.371171    -5.875832    -5.147120    -2.045948    15.322094    10.591579    -13.810979    4.944682    2.734502    0.000000    0.000000    0.000000    -4.136685    5.718168    -2.655958    3.012570    1.120011    -6.539611    2.823848    -1.165365    -4.450369    0.000000    0.000000    0.000000    
7.459492    88.103722    52.864983    -1.640355    3.996853    89.149498    0.019921    -9.009236    -2.847728    0.581370    -11.880310    -2.788805    -6.572663    24.545490    6.048812    1.118937    -10.000852    6.018336    1.374582    2.160003    -14.059383    -5.924829    10.474940    -26.801168    36.275433    -22.619152    -48.504597    21.552004    -6.240462    -0.306379    -4.440470    6.971682    9.609733    81.182732    58.439636    -5.576305    3.512696    -11.559985    14.895554    8.959799    -11.871778    1.797076    -0.394591    -6.202456    -5.178507    -2.134125    15.966438    10.812461    -13.994315    4.863878    2.745011    0.000000    0.000000    0.000000    -4.274906    5.741321    -2.623092    3.102036    1.167513    -6.650989    3.165420    -1.297824    -4.098625    0.000000    0.000000    0.000000    
7.537971    88.100800    52.823162    -1.660420    4.017725    88.998108    0.331768    -8.921262    -2.859887    0.259118    -12.102451    -2.858293    -7.005591    24.400068    6.317538    1.396530    -10.117920    6.337354    1.356601    1.998056    -13.492482    -4.529742    10.273604    -26.790199    34.930157    -22.363121    -48.928024    21.749960    -6.532576    -0.574046    -4.334564    6.906190    10.152595    81.381729    58.221191    -5.795552    3.541373    -11.361317    14.831084    8.978587    -11.681330    1.711381    -0.406828    -6.625327    -5.248988    -2.271312    16.751379    11.100620    -14.200196    4.804126    2.655633    0.000000    0.000000    0.000000    -4.454319    5.720822    -2.607858    3.221648    1.252267    -6.678739    3.619675    -1.467653    -3.803710    0.000000    0.000000    0.000000    
7.620999    88.097931    52.767593    -1.683411    4.060831    88.839355    0.603855    -8.817756    -2.876109    0.016258    -12.369936    -2.920898    -7.606567    24.100872    6.572627    1.856179    -9.946646    6.679766    1.299551    1.860209    -12.921296    -3.055960    10.720675    -26.678904    34.376846    -22.632761    -48.738956    20.956486    -7.279206    -1.171469    -4.269046    7.128442    10.534555    80.943863    58.214825    -5.315753    3.619966    -11.234554    14.652837    9.116180    -11.558509    1.693285    -0.481055    -7.046389    -5.351626    -2.392291    17.505186    11.525929    -14.492336    4.771806    2.574567    0.000000    0.000000    0.000000    -4.671865    5.721961    -2.508707    3.344969    1.272960    -7.039175    4.369657    -1.692467    -3.154776    0.000000    0.000000    0.000000    
7.702292    88.095833    52.723194    -1.702035    4.025218    88.637817    0.926642    -8.693892    -2.880194    -0.154527    -12.591818    -2.967658    -8.319660    23.680832    6.851982    2.439131    -9.746245    7.078319    1.489193    1.547768    -12.409872    -1.852274    10.865314    -26.475401    33.026669    -22.711737    -48.983456    20.808022    -8.041293    -1.680509    -4.305942    7.071952    10.913649    81.025169    58.262844    -5.318706    3.724041    -11.157083    14.537680    9.064505    -11.493139    1.669338    -0.373538    -7.538038    -5.413865    -2.705426    18.358047    11.958701    -14.710501    4.709397    2.556919    0.000000    0.000000    0.000000    -4.788745    5.711621    -2.315958    3.440190    1.336626    -6.952621    5.161683    -1.963959    -3.056152    0.000000    0.000000    0.000000    
